<svg version="1.0" xmlns="http://www.w3.org/2000/svg" width="228.000000pt" height="252.000000pt" viewBox="0 0 228.000000 252.000000" preserveAspectRatio="xMidYMid meet">
<g transform="translate(0.000000,252.000000) scale(0.100000,-0.100000)" stroke="none">
<path d="M1050 2480 c-176 -33 -311 -156 -356 -324 -8 -28 -14 -99 -14 -158
l0 -108 -189 0 c-237 0 -279 -9 -342 -70 -30 -29 -51 -59 -58 -85 -7 -27 -11
-238 -11 -645 0 -648 1 -664 51 -762 57 -111 188 -204 320 -227 90 -15 1257
-15 1348 0 179 30 324 166 360 337 15 73 15 1241 0 1297 -7 26 -28 56 -59 86
-63 61 -101 69 -339 69 l-189 0 -4 133 c-3 123 -6 137 -34 197 -39 81 -81 133
-144 181 -86 64 -235 99 -340 79z m155 -151 c55 -15 124 -63 163 -115 44 -57
64 -134 60 -237 l-3 -82 -297 -3 -298 -2 0 112 c0 98 3 120 24 163 63 133 211
202 351 164z m-525 -796 c4 -173 7 -205 22 -219 24 -24 75 -22 101 5 21 20 22
31 25 221 l4 200 296 -2 297 -3 5 -202 c5 -217 7 -225 60 -238 18 -4 34 0 53
15 l27 21 2 202 3 202 201 3 c186 2 203 1 225 -17 l24 -19 0 -619 0 -618 -23
-45 c-33 -68 -105 -136 -169 -160 -52 -19 -76 -20 -707 -20 -573 0 -658 2
-700 16 -64 22 -147 100 -177 166 l-24 53 0 613 0 614 24 19 c22 18 39 19 225
17 l201 -3 5 -202z"/>
</g>
</svg>
