<svg version="1.0" xmlns="http://www.w3.org/2000/svg" width="242.000000pt" height="263.000000pt" viewBox="0 0 242.000000 263.000000" preserveAspectRatio="xMidYMid meet">
<g transform="translate(0.000000,263.000000) scale(0.100000,-0.100000)" stroke="none">
<path d="M1160 2487 c-27 -14 -38 -42 -39 -103 -1 -41 -1 -41 -46 -47 -220
-31 -443 -194 -548 -402 -54 -109 -68 -177 -77 -385 -9 -215 -17 -264 -54
-364 -35 -92 -84 -171 -157 -252 -34 -37 -67 -82 -75 -100 -17 -40 -18 -112
-3 -151 15 -40 67 -92 114 -114 38 -18 84 -19 920 -19 832 0 882 1 920 19 80
37 125 103 125 186 0 61 -20 105 -72 162 -73 80 -106 127 -143 205 -62 130
-75 194 -81 383 -7 234 -22 313 -86 439 -95 189 -270 325 -490 380 -89 23 -93
25 -96 52 -7 78 -13 94 -42 109 -35 18 -38 18 -70 2z m171 -301 c198 -42 384
-217 444 -416 10 -36 19 -122 25 -250 5 -107 13 -217 19 -245 29 -148 134
-349 226 -435 45 -41 58 -76 43 -108 l-13 -27 -877 -3 -877 -2 -17 24 c-21 33
-13 52 48 122 73 83 143 196 177 284 41 106 59 220 65 406 7 222 31 310 122
430 141 188 374 271 615 220z"/>
<path d="M952 390 c-72 -29 -27 -162 81 -236 83 -57 187 -66 284 -24 93 40
181 169 155 225 -7 14 -23 30 -37 37 -36 16 -67 -1 -107 -61 -38 -59 -77 -81
-142 -81 -38 0 -52 6 -85 35 -21 19 -44 48 -51 64 -6 16 -23 33 -36 40 -29 13
-31 13 -62 1z"/>
</g>
</svg>
