<svg version="1.0" width="249.000000pt" height="248.000000pt" viewBox="0 0 249.000000 248.000000" preserveAspectRatio="xMidYMid meet">
<g transform="translate(0.000000,248.000000) scale(0.100000,-0.100000)" stroke="none">
<path d="M1150 2444 c-421 -47 -725 -236 -947 -589 -43 -68 -107 -231 -134
-340 -30 -121 -33 -390 -6 -505 62 -262 174 -461 356 -632 173 -163 402 -275
630 -308 121 -18 373 -7 476 20 406 107 717 394 845 779 46 141 55 201 55 381
0 197 -15 279 -79 443 -149 378 -484 654 -887 731 -80 15 -252 26 -309 20z
m266 -158 c269 -48 495 -186 659 -405 151 -200 224 -434 211 -676 -28 -568
-485 -1005 -1050 -1005 -282 0 -539 106 -741 305 -163 161 -262 356 -300 591
-20 124 -19 199 4 330 59 335 268 616 576 772 63 31 219 81 287 91 99 14 265
12 354 -3z"/>
<path d="M742 1304 c-16 -11 -22 -25 -22 -54 0 -72 -16 -70 521 -70 463 0 476
1 494 20 25 27 22 80 -6 102 -20 17 -58 18 -493 18 -411 0 -474 -2 -494 -16z"/>
</g>
</svg>
