<svg version="1.0" xmlns="http://www.w3.org/2000/svg" width="294.000000pt" height="257.000000pt" viewBox="0 0 294.000000 257.000000" preserveAspectRatio="xMidYMid meet">
<g transform="translate(0.000000,257.000000) scale(0.100000,-0.100000)" stroke="none">
<path d="M1443 2478 c-11 -18 -28 -51 -40 -73 -44 -85 -333 -635 -337 -642 -3
-4 -152 -33 -296 -57 -308 -53 -496 -86 -525 -94 l-29 -8 169 -175 c93 -96
228 -233 298 -305 l129 -132 -12 -88 c-6 -49 -32 -239 -59 -422 -26 -183 -45
-334 -42 -336 3 -2 174 79 380 180 205 101 379 184 386 184 17 0 178 -76 502
-238 144 -73 264 -128 266 -124 4 6 -26 238 -52 402 -10 64 -19 127 -47 329
-7 57 -10 109 -6 116 4 7 135 144 292 305 157 161 286 296 288 300 4 11 -34
18 -448 90 -190 33 -355 62 -366 65 -23 5 -68 85 -300 527 -65 125 -122 228
-126 228 -3 0 -15 -15 -25 -32z"/>
</g>
</svg>
