<svg version="1.0" xmlns="http://www.w3.org/2000/svg" width="263.000000pt" height="216.000000pt" viewBox="0 0 263.000000 216.000000" preserveAspectRatio="xMidYMid meet">
<g transform="translate(0.000000,216.000000) scale(0.100000,-0.100000)" stroke="none">
<path d="M720 2110 c-219 -18 -405 -139 -518 -338 -60 -106 -77 -180 -77 -337
0 -119 4 -150 23 -209 43 -127 99 -217 191 -306 72 -69 517 -487 601 -565 41
-38 117 -108 168 -157 109 -103 140 -122 207 -122 68 0 103 21 215 128 53 50
167 158 255 240 88 82 223 209 300 281 77 72 162 151 189 176 97 88 176 212
213 334 14 47 18 92 17 205 0 129 -3 154 -27 225 -66 198 -228 356 -431 420
-64 21 -99 25 -190 26 -134 0 -194 -11 -280 -50 -83 -37 -138 -76 -201 -140
-27 -28 -53 -51 -56 -51 -3 0 -30 23 -60 51 -70 67 -169 130 -244 157 -49 17
-195 46 -207 41 -2 -1 -41 -5 -88 -9z"/>
</g>
</svg>
