<svg version="1.0" xmlns="http://www.w3.org/2000/svg" width="267.000000pt" height="220.000000pt" viewBox="0 0 267.000000 220.000000" preserveAspectRatio="xMidYMid meet">
<g transform="translate(0.000000,220.000000) scale(0.100000,-0.100000)" stroke="none">
<path d="M1825 2119 c-148 -9 -291 -70 -396 -167 l-58 -54 -51 44 c-97 84
-223 148 -334 169 -83 15 -216 11 -302 -11 -251 -65 -434 -251 -495 -508 -18
-72 -20 -106 -16 -197 12 -229 78 -348 313 -570 419 -394 708 -660 758 -697
80 -58 168 -58 247 0 20 15 137 122 260 236 697 651 681 635 739 754 53 110
64 165 65 312 0 104 -4 149 -19 195 -83 269 -302 462 -561 493 -33 4 -100 4
-150 1z m-889 -220 c105 -19 169 -58 279 -168 144 -146 161 -146 304 2 101
104 154 136 269 164 63 15 81 15 150 4 108 -18 192 -60 266 -135 111 -111 159
-261 132 -414 -29 -163 -63 -205 -476 -587 -209 -192 -328 -304 -427 -399 -73
-70 -50 -78 -230 90 -70 66 -227 212 -348 324 -313 290 -378 357 -409 418 -70
139 -75 301 -12 436 61 133 182 230 324 262 74 16 106 16 178 3z"/>
</g>
</svg>
