<svg viewBox="0 0 39 36" fill="none" xmlns="http://www.w3.org/2000/svg">
  <path d="M18.8093 6.0616L19.2374 6.77144L19.6656 6.06159C21.3713 3.23357 24.4612 1.33936 28 1.33936C33.3778 1.33936 37.7374 5.6989 37.7374 11.0767C37.7374 12.3041 37.5006 13.4751 37.0841 14.5602L37.0812 14.5676L37.0786 14.5752C35.4296 19.3182 30.9342 24.3518 26.7831 28.2363C24.7178 30.169 22.7567 31.7999 21.3119 32.9477C20.5897 33.5215 19.997 33.974 19.5855 34.2828C19.4489 34.3853 19.3323 34.4719 19.2375 34.5418C19.1427 34.4719 19.0261 34.3853 18.8895 34.2828C18.4779 33.974 17.8853 33.5215 17.1631 32.9477C15.7183 31.7999 13.7572 30.169 11.6919 28.2363C7.54072 24.3518 3.04538 19.3182 1.39637 14.5752L1.39376 14.5676L1.3909 14.5602C0.974414 13.475 0.737499 12.3041 0.737499 11.0767C0.737499 5.69889 5.09696 1.33936 10.4748 1.33936C14.0136 1.33936 17.1034 3.23356 18.8093 6.0616Z" stroke="var(--gray)"/>
</svg>
