<svg version="1.0" xmlns="http://www.w3.org/2000/svg" width="292.000000pt" height="225.000000pt" viewBox="0 0 292.000000 225.000000" preserveAspectRatio="xMidYMid meet">
<g transform="translate(0.000000,225.000000) scale(0.100000,-0.100000)" stroke="none">
<path d="M2185 2210 c-137 -19 -252 -81 -370 -200 -59 -59 -68 -73 -59 -88 22
-34 43 -24 127 56 126 121 227 165 382 165 106 1 168 -17 269 -77 87 -52 156
-127 201 -219 43 -89 59 -169 52 -268 -14 -185 -36 -215 -469 -646 -200 -199
-375 -371 -390 -383 -93 -72 -253 -110 -381 -91 -197 30 -375 188 -429 380
-37 133 -16 293 53 406 19 31 87 112 152 180 114 120 136 156 101 169 -22 9
-55 -17 -169 -135 -162 -167 -215 -276 -223 -454 -3 -73 1 -117 13 -164 105
-406 577 -587 913 -351 78 54 756 733 802 802 115 173 130 400 38 583 -118
235 -362 368 -613 335z"/>
<path d="M1180 1881 c-88 -21 -138 -42 -200 -83 -25 -17 -206 -191 -404 -387
-257 -255 -372 -377 -407 -430 -235 -355 -20 -831 409 -908 88 -16 99 -16 184
1 145 28 224 69 351 186 68 63 85 101 51 114 -27 10 -33 7 -97 -57 -109 -109
-195 -155 -324 -177 -103 -17 -194 -1 -303 52 -284 139 -383 473 -220 742 23
37 160 181 409 429 408 405 426 419 564 451 179 42 339 -7 479 -145 61 -59 86
-93 115 -155 l38 -79 0 -135 0 -135 -42 -86 c-36 -73 -60 -104 -167 -215 -69
-71 -125 -136 -126 -145 0 -26 25 -42 47 -31 10 6 72 66 138 134 179 184 220
273 220 478 0 105 -4 136 -23 192 -67 194 -250 352 -454 393 -96 19 -143 18
-238 -4z"/>
</g>
</svg>
