<svg version="1.0" xmlns="http://www.w3.org/2000/svg" width="266.000000pt" height="224.000000pt" viewBox="0 0 266.000000 224.000000" preserveAspectRatio="xMidYMid meet">
<g transform="translate(0.000000,224.000000) scale(0.100000,-0.100000)" stroke="none">
<path d="M204 2121 c-44 -27 -54 -66 -54 -205 0 -134 14 -180 60 -203 30 -15
286 -18 324 -3 47 17 60 54 65 172 4 145 -4 194 -39 230 l-28 28 -149 0 c-128
0 -152 -3 -179 -19z m316 -70 c5 -11 10 -70 10 -131 0 -61 -5 -120 -10 -131
-10 -17 -22 -19 -145 -19 -123 0 -135 2 -145 19 -5 11 -10 70 -10 131 0 61 5
120 10 131 10 17 22 19 145 19 123 0 135 -2 145 -19z"/>
<path d="M886 1947 c-10 -7 -16 -22 -14 -33 3 -19 20 -19 778 -19 758 0 775 0
778 19 9 46 13 46 -778 46 -601 0 -750 -3 -764 -13z"/>
<path d="M210 1377 c-46 -23 -60 -69 -60 -205 0 -209 12 -222 217 -222 223 0
228 5 228 220 0 215 -5 220 -223 220 -89 0 -146 -5 -162 -13z m310 -76 c5 -11
10 -70 10 -131 0 -61 -5 -120 -10 -131 -10 -17 -22 -19 -145 -19 -123 0 -135
2 -145 19 -5 11 -10 70 -10 131 0 61 5 120 10 131 10 17 22 19 145 19 123 0
135 -2 145 -19z"/>
<path d="M877 1193 c-13 -13 -7 -42 11 -52 12 -6 295 -10 763 -11 791 -1 786
-1 777 46 -3 19 -21 19 -774 22 -424 1 -774 -1 -777 -5z"/>
<path d="M204 621 c-44 -27 -54 -66 -54 -203 0 -202 16 -218 224 -218 74 0
146 4 160 10 47 17 60 54 65 172 4 145 -4 194 -39 230 l-28 28 -149 0 c-128 0
-152 -3 -179 -19z m316 -70 c5 -11 10 -70 10 -131 0 -61 -5 -120 -10 -131 -10
-17 -22 -19 -145 -19 -123 0 -135 2 -145 19 -5 11 -10 70 -10 131 0 61 5 120
10 131 10 17 22 19 145 19 123 0 135 -2 145 -19z"/>
<path d="M888 449 c-27 -15 -22 -48 8 -59 15 -6 305 -10 754 -10 449 0 739 4
754 10 31 11 35 45 7 60 -27 14 -1499 13 -1523 -1z"/>
</g>
</svg>
