<svg version="1.0" xmlns="http://www.w3.org/2000/svg" width="253.000000pt" height="191.000000pt" viewBox="0 0 253.000000 191.000000" preserveAspectRatio="xMidYMid meet">
<g transform="translate(0.000000,191.000000) scale(0.100000,-0.100000)" stroke="none">
<path d="M323 1850 c-116 -24 -207 -117 -232 -238 -7 -35 -11 -256 -11 -655 0
-501 3 -612 15 -660 26 -100 82 -168 175 -211 45 -21 55 -21 989 -24 1043 -3
1000 -5 1097 60 34 24 58 51 83 98 l36 65 3 655 c2 597 1 659 -15 710 -22 70
-94 149 -166 181 l-52 24 -940 2 c-517 0 -959 -3 -982 -7z m1911 -70 c62 -14
117 -59 148 -120 24 -47 28 -67 28 -142 l0 -87 -47 -40 c-78 -65 -563 -456
-847 -682 -157 -125 -228 -145 -336 -91 -30 15 -180 128 -334 252 -153 124
-371 300 -485 391 l-206 165 -3 60 c-9 155 60 265 182 295 45 10 1854 10 1900
-1z m-1719 -735 c109 -88 216 -174 239 -192 22 -17 109 -86 191 -153 163 -132
226 -168 308 -177 57 -6 149 15 196 45 23 15 460 363 813 649 70 57 132 103
138 103 7 0 10 -166 10 -502 l0 -503 -24 -52 c-28 -59 -82 -104 -148 -122 -32
-9 -281 -11 -978 -9 l-935 3 -41 22 c-22 12 -55 38 -72 57 -60 69 -62 89 -62
621 0 265 3 484 6 488 6 6 43 -23 359 -278z"/>
</g>
</svg>
