<svg version="1.0" xmlns="http://www.w3.org/2000/svg" width="196.000000pt" height="247.000000pt" viewBox="0 0 196.000000 247.000000" preserveAspectRatio="xMidYMid meet">
<g transform="translate(0.000000,247.000000) scale(0.100000,-0.100000)" stroke="none">
<path fill="#2A6FF4" d="M895 2464 c-203 -27 -335 -78 -471 -180 -166 -125 -272 -286 -325
-493 -75 -291 4 -543 314 -1011 134 -202 443 -598 531 -679 31 -29 15 -42 156
124 232 274 444 572 577 810 167 299 210 479 168 700 -36 185 -108 327 -235
455 -141 144 -260 210 -450 253 -70 16 -216 28 -265 21z m190 -617 c103 -48
185 -174 185 -283 0 -74 -50 -171 -116 -228 -85 -70 -210 -88 -307 -41 -199
94 -243 337 -88 489 87 85 221 111 326 63z"/>
</g>
</svg>
