<svg version="1.0" xmlns="http://www.w3.org/2000/svg" width="244.000000pt" height="262.000000pt" viewBox="0 0 244.000000 262.000000" preserveAspectRatio="xMidYMid meet">
<g transform="translate(0.000000,262.000000) scale(0.100000,-0.100000)" stroke="none">
<path d="M1170 2543 c-119 -15 -234 -70 -329 -158 -116 -108 -177 -238 -187
-398 -11 -172 39 -313 153 -436 135 -147 284 -204 493 -190 232 16 428 166
508 391 34 96 42 244 17 338 -53 204 -211 372 -406 430 -68 21 -187 32 -249
23z m231 -88 c86 -30 154 -71 209 -125 64 -63 103 -124 137 -217 33 -91 33
-235 0 -326 -83 -229 -260 -358 -497 -361 -123 -1 -214 27 -314 98 -81 58
-158 162 -190 256 -27 79 -32 220 -12 300 50 196 221 354 426 394 45 9 195 -3
241 -19z"/>
<path d="M1037 1113 c-17 -17 -1 -51 78 -162 47 -66 85 -125 85 -133 -1 -18
-94 -200 -104 -202 -4 0 -57 93 -117 209 l-109 210 -39 -2 c-55 -2 -199 -53
-268 -94 -77 -46 -212 -180 -257 -257 -63 -105 -105 -252 -106 -366 0 -66 22
-112 68 -142 26 -17 77 -18 977 -19 900 0 952 1 978 18 16 10 37 32 48 50 18
28 20 43 15 129 -19 320 -249 592 -567 672 -36 9 -73 16 -82 16 -11 0 -49 -66
-124 -215 -59 -118 -110 -215 -113 -215 -7 0 -110 197 -110 210 0 5 38 62 85
125 98 132 102 140 85 160 -10 12 -48 15 -215 15 -111 0 -205 -3 -208 -7z
m323 -69 c0 -6 -109 -154 -114 -154 -7 0 -106 140 -106 150 0 6 45 10 110 10
61 0 110 -2 110 -6z m-344 -444 c100 -200 180 -368 178 -372 -3 -4 -200 -8
-438 -8 -430 0 -434 0 -461 22 -27 21 -28 22 -22 107 13 175 78 311 209 437
34 33 83 74 108 89 51 33 208 96 229 92 7 -1 96 -166 197 -367z m736 344 c105
-37 171 -78 251 -153 99 -94 149 -169 185 -281 28 -89 44 -202 33 -233 -22
-58 -17 -57 -487 -57 -237 0 -433 3 -437 6 -8 8 360 744 372 744 6 0 43 -12
83 -26z m-444 -319 l52 -106 -52 -101 c-29 -56 -57 -102 -62 -102 -4 -1 -32
44 -61 99 l-53 100 51 107 c29 59 57 108 62 108 6 0 34 -47 63 -105z"/>
</g>
</svg>
