<svg version="1.0" xmlns="http://www.w3.org/2000/svg" width="255.000000pt" height="250.000000pt" viewBox="0 0 255.000000 250.000000" preserveAspectRatio="xMidYMid meet">
<g transform="translate(0.000000,250.000000) scale(0.100000,-0.100000)" stroke="none">
<path d="M560 2419 c-58 -16 -161 -45 -229 -65 -143 -40 -184 -65 -214 -133
-18 -40 -19 -59 -14 -171 35 -765 481 -1441 1177 -1786 211 -105 491 -183 715
-199 184 -13 207 -13 253 0 50 15 104 62 120 105 28 74 122 443 122 479 0 97
-45 144 -196 207 -409 170 -426 176 -495 153 -45 -15 -82 -52 -181 -176 -45
-57 -89 -103 -98 -103 -22 0 -153 74 -240 135 -184 130 -319 276 -438 475 -73
123 -80 140 -61 154 77 58 213 173 238 201 38 44 54 101 43 152 -10 41 -169
427 -208 505 -17 34 -36 54 -64 68 -65 33 -113 33 -230 -1z m213 -78 c27 -27
227 -496 227 -530 0 -43 -29 -77 -157 -182 -89 -74 -135 -119 -140 -136 -16
-67 193 -383 353 -532 153 -144 431 -318 484 -304 12 3 56 47 98 97 43 50 101
115 129 145 50 51 54 53 95 49 24 -3 147 -48 273 -101 308 -129 313 -135 261
-317 -14 -47 -36 -130 -51 -185 -51 -194 -64 -213 -149 -222 -95 -11 -397 30
-561 76 -336 94 -716 332 -939 587 -329 375 -501 784 -523 1246 -7 153 1 189
48 213 28 15 403 120 449 127 45 6 78 -4 103 -31z"/>
</g>
</svg>
