<svg version="1.0" xmlns="http://www.w3.org/2000/svg" width="292.000000pt" height="255.000000pt" viewBox="0 0 292.000000 255.000000" preserveAspectRatio="xMidYMid meet">
<g transform="translate(0.000000,255.000000) scale(0.100000,-0.100000)" stroke="none">
<path d="M1412 2438 c-10 -18 -57 -105 -102 -193 -46 -88 -103 -198 -128 -245
-118 -225 -145 -275 -148 -279 -2 -2 -25 -8 -51 -12 -27 -4 -88 -15 -138 -24
-49 -9 -115 -20 -145 -25 -184 -29 -472 -81 -489 -88 -22 -8 -30 2 353 -396
116 -120 212 -222 214 -227 3 -8 -16 -153 -53 -399 -15 -104 -40 -279 -53
-378 -5 -34 -6 -65 -2 -67 3 -2 174 79 379 181 206 101 381 184 390 184 9 0
183 -83 386 -184 204 -101 373 -182 376 -180 6 3 -6 105 -36 314 -9 63 -23
158 -30 210 -7 52 -21 144 -29 203 -9 60 -13 115 -8 123 4 8 139 148 299 313
l292 298 -52 11 c-47 10 -186 35 -437 78 -280 48 -352 62 -359 70 -5 5 -38 63
-73 129 -34 66 -121 232 -193 368 -71 135 -133 247 -137 247 -3 0 -15 -15 -26
-32z m38 -287 c0 -5 19 -44 43 -87 24 -44 81 -151 126 -239 68 -131 112 -211
126 -233 1 -1 69 -14 151 -28 82 -14 187 -32 234 -40 47 -8 119 -21 161 -28
41 -7 81 -16 87 -20 8 -5 -66 -88 -210 -237 -123 -127 -224 -239 -226 -250 -2
-12 4 -68 12 -125 9 -57 23 -152 32 -211 8 -60 22 -150 30 -202 8 -51 12 -96
9 -99 -3 -4 -136 58 -294 138 -287 143 -289 143 -322 129 -19 -7 -150 -71
-292 -141 -142 -71 -260 -128 -262 -128 -10 0 -3 67 35 330 22 151 40 286 40
300 0 19 -52 78 -224 255 -123 127 -221 233 -218 237 6 6 208 43 452 83 133
22 181 32 190 41 7 9 46 81 190 359 89 171 109 205 121 205 5 0 9 -4 9 -9z"/>
</g>
</svg>
