<svg version="1.0" width="201.000000pt" height="224.000000pt" viewBox="0 0 201.000000 224.000000" preserveAspectRatio="xMidYMid meet">
<g transform="translate(0.000000,224.000000) scale(0.100000,-0.100000)" stroke="none">
<path d="M142 2165 c-36 -16 -51 -54 -34 -88 6 -12 84 -108 174 -213 90 -106
202 -238 250 -295 47 -57 146 -174 218 -259 72 -85 135 -162 140 -171 7 -12
-18 -46 -101 -145 -61 -71 -132 -154 -157 -183 -319 -375 -532 -636 -532 -652
0 -48 44 -84 88 -72 12 3 166 176 344 386 391 461 459 538 468 535 7 -3 380
-437 440 -512 100 -125 337 -393 356 -404 41 -22 94 16 94 67 0 23 -12 38
-320 401 -146 172 -290 343 -320 380 -30 37 -77 93 -103 123 -27 31 -47 63
-45 71 3 13 305 376 603 725 153 179 185 222 185 247 0 35 -34 64 -74 64 -30
0 -41 -8 -80 -55 -41 -51 -276 -328 -441 -520 -38 -45 -119 -141 -180 -213
-60 -72 -114 -131 -120 -131 -5 0 -32 28 -60 61 -27 34 -121 145 -208 247 -87
102 -202 237 -255 300 -228 267 -263 306 -280 312 -10 4 -32 1 -50 -6z"/>
</g>
</svg>
